<svg width="154" height="32" viewBox="0 0 154 32" fill="none" xmlns="http://www.w3.org/2000/svg">
<path d="M17.7881 11.3586C14.9115 16.8906 11.9059 22.3018 9.14207 27.8397C8.71673 28.6919 8.23251 29.5149 7.77531 30.3512C7.21615 31.3741 6.35837 31.8749 5.18597 31.8888C3.66397 31.907 2.14234 31.9583 0.620662 31.9995C-0.00419752 32.0163 -0.169426 31.6394 0.180523 30.9631C1.80711 27.8193 3.42921 24.6732 5.06538 21.5344C8.43587 15.0685 11.8126 8.6059 15.1923 2.14481C15.5066 1.5439 15.8433 0.953757 16.4285 0.554186C17.7794 -0.368164 19.2692 -0.140098 20.1166 1.24518C21.3108 3.19745 22.425 5.19901 23.5544 7.19024C27.1417 13.515 30.7245 19.8423 34.2991 26.1742C35.1533 27.6873 35.9738 29.2196 36.8001 30.7483C37.1632 31.42 37.0568 31.6057 36.2733 31.6133C34.5749 31.6297 32.8761 31.6142 31.1776 31.6271C30.7851 31.6301 30.5568 31.4621 30.3772 31.1269C29.2662 29.053 28.1168 26.9993 27.0372 24.9094C26.6782 24.2145 26.2483 23.9441 25.4505 23.9722C22.0578 24.0919 18.6627 24.1475 15.2685 24.2225C15.0016 24.2284 14.7179 24.282 14.4503 24.0618C14.9625 23.0989 15.539 22.1822 15.9508 21.1968C16.4096 20.0989 17.1004 19.7294 18.2955 19.7999C19.9858 19.8997 21.6891 19.7815 23.3867 19.75C23.5908 19.7462 23.8155 19.7862 24.0464 19.5398C22.2843 16.3365 20.5112 13.1131 18.6972 9.81532C18.2165 10.3451 18.0675 10.8629 17.7881 11.3586Z" fill="#132050"/>
<path d="M53.5565 29.4347C47.8499 27.854 45.741 23.1209 46.025 18.5729C46.4368 11.9785 51.2814 8.42702 56.8288 8.03896C59.8479 7.82776 62.7086 8.47042 65.289 10.083C66.1241 10.6049 66.3302 11.0993 65.3245 11.6648C64.9212 11.8915 64.5466 12.1758 64.1909 12.4699C63.2726 13.2294 62.427 13.2919 61.2725 12.7243C55.9207 10.0929 49.8338 13.536 49.7965 19.2917C49.772 23.0726 52.335 25.894 56.4465 26.2462C57.0521 26.2981 57.6705 26.2861 58.2773 26.2381C61.5682 25.978 62.1805 25.2593 62.0409 22.1061C61.9966 21.1035 61.5227 20.7193 60.5705 20.7094C59.4898 20.6983 58.4078 20.6576 57.3286 20.6923C56.0475 20.7336 56.035 19.9378 56.0786 19.0618C56.1204 18.2223 55.8869 17.2645 57.3328 17.2951C59.6813 17.3448 62.0317 17.3319 64.3809 17.3073C65.2592 17.2981 65.7023 17.6123 65.6845 18.4907C65.633 21.0288 65.7779 23.5666 65.5973 26.1077C65.5262 27.1073 65.0856 27.7296 64.2572 28.1625C60.9045 29.9143 57.4002 30.5725 53.5565 29.4347Z" fill="#132050"/>
<path d="M77.953 11.7204C77.9433 10.9711 77.971 10.3471 77.9179 9.72952C77.818 8.56778 78.2829 8.03404 79.5579 8.00935C81.6112 7.96961 81.6051 7.96987 81.6674 9.89246C81.8498 15.5243 81.9584 21.1569 81.9002 26.7907C81.8927 27.512 82.4436 28.5775 81.0332 28.8123C79.2198 29.1141 78.5095 28.8367 77.9192 27.5494C77.5025 27.3529 77.2271 27.6535 76.9204 27.8261C72.3396 30.404 68.1483 28.6219 67.2179 23.5997C66.6532 20.5514 67.1086 17.6533 69.5023 15.3282C71.1619 13.7162 73.1681 13.193 75.4821 13.7793C77.9456 14.4034 77.95 14.3876 77.953 11.7204ZM71.7237 24.5154C72.745 25.3226 73.8499 25.6864 75.1845 25.2735C78.7549 24.1689 78.7763 20.813 77.4959 18.6672C76.2017 16.4985 73.1165 16.4533 71.5585 18.4679C70.1705 20.2627 70.1773 22.4913 71.7237 24.5154Z" fill="#132050"/>
<path d="M144.955 22.1241C144.606 21.7182 144.379 21.1903 143.815 21.6213C143.131 22.1437 142.308 22.5652 142.331 23.643C142.359 24.9556 142.342 26.2724 142.444 27.579C142.517 28.5078 142.187 28.899 141.319 28.8791C141.048 28.8729 140.773 28.8619 140.505 28.8961C139.252 29.056 138.706 28.5553 138.704 27.1852C138.699 24.9835 138.534 22.7825 138.454 20.5806C138.306 16.5498 138.204 12.5167 138.006 8.48865C137.952 7.3848 138.232 6.99797 139.33 7.00001C141.996 7.00496 141.989 6.95494 141.98 9.75345C141.971 12.5655 141.978 15.3777 141.978 18.5754C143.319 17.2171 144.046 15.8384 144.962 14.6266C146.466 12.639 148.386 12.0959 151.038 13.1138C149.853 14.3622 148.768 15.5928 147.588 16.7167C146.804 17.4634 146.713 17.9823 147.455 18.8925C149.675 21.6153 151.654 24.5351 153.572 27.4954C153.768 27.7973 154.06 28.0688 153.989 28.4949C151.824 29.5311 149.546 28.9385 148.287 27.0333C147.213 25.4091 146.252 23.7026 144.955 22.1241Z" fill="#132050"/>
<path d="M99.954 25.6187C99.9585 25.9357 99.9603 26.1187 99.9623 26.3016C99.994 29.1978 100.444 28.8864 97.15 28.7691C96.9727 28.7628 96.6911 28.7488 96.6374 28.6453C95.8571 27.1407 94.9604 28.0582 94.0628 28.4825C91.6171 29.6383 88.4099 28.7974 86.6709 26.5644C84.4263 23.6821 84.4462 18.3692 86.7122 15.5022C88.5351 13.1959 91.4975 12.3754 94.2045 13.4982C95.0099 13.8322 95.6166 13.9627 96.4571 13.4132C97.202 12.9262 98.2479 13.173 99.1429 13.3057C99.8945 13.4171 99.7257 14.1265 99.7372 14.6499C99.8159 18.2613 99.8816 21.873 99.954 25.6187ZM96.062 22.9013C96.5139 21.4815 96.386 20.1024 95.6734 18.8078C94.717 17.0704 92.3935 16.3241 90.8437 17.2103C89.4655 17.9984 88.6599 19.936 88.9641 21.7309C89.2755 23.5683 90.457 24.9509 91.9603 25.2371C93.5854 25.5464 94.8929 24.8534 96.062 22.9013Z" fill="#132050"/>
<path d="M107.875 14.3595C108.849 13.7026 109.806 13.241 110.874 13.0693C113.899 12.5831 116.477 14.7039 116.731 17.8843C116.984 21.0425 116.955 24.2088 117 27.3735C117.013 28.3037 116.686 28.6378 115.766 28.6568C113.122 28.7115 113.112 28.7468 112.955 26.1184C112.828 24.0122 112.682 21.9053 112.637 19.7967C112.595 17.8219 111.828 16.7734 110.225 16.7381C108.492 16.7 106.959 18.048 106.933 19.767C106.893 22.3444 106.878 24.9265 106.995 27.4999C107.044 28.5869 106.949 29.0214 105.713 28.9992C103.129 28.9528 103.122 29.0399 103.101 26.4467C103.07 22.6469 103.086 18.846 103.001 15.0475C102.974 13.8411 103.381 13.3946 104.533 13.526C105.49 13.6352 106.6 13.191 107.193 14.4488C107.295 14.6645 107.594 14.5096 107.875 14.3595Z" fill="#132050"/>
<path d="M133.931 24.1795C133.263 27.895 130.098 29.1798 126.676 28.9801C124.566 28.8569 122.61 28.2104 121.359 26.2448C120.815 25.389 120.804 24.8051 121.926 24.475C123.215 24.0957 124.363 23.4548 125.533 24.9866C126.257 25.934 127.625 25.8366 128.726 25.2884C129.711 24.7984 129.731 23.848 128.849 23.1731C128.382 22.8162 127.838 22.6554 127.287 22.4882C126.237 22.1695 125.191 21.8317 124.158 21.4613C122.678 20.9309 121.649 19.9747 121.537 18.2921C121.42 16.5324 122.185 15.174 123.595 14.2189C126.57 12.2029 131.303 12.7464 134 15.415C133.394 16.3384 132.521 17.0071 131.717 17.7414C131.255 18.1634 130.864 17.9762 130.445 17.6143C129.521 16.8175 128.418 16.5814 127.235 16.7217C126.734 16.7811 126.262 16.9727 126.194 17.5676C126.129 18.1466 126.606 18.3102 127.015 18.4571C128.216 18.8882 129.45 19.2317 130.627 19.7185C132.542 20.5102 133.907 21.7889 133.931 24.1795Z" fill="#132050"/>
<path d="M108.924 9.32543C110.73 7.20828 112.871 8.28155 115 8.20587C113.273 11.5756 110.669 12.6532 107 11.6276C107.31 10.5954 108.335 10.2117 108.924 9.32543Z" fill="#132050"/>
</svg>
