<svg width="73" height="40" viewBox="0 0 73 40" fill="none" xmlns="http://www.w3.org/2000/svg">
<path d="M35.7043 0.0120598C31.4225 -0.0386342 27.2693 1.28742 24.0376 3.73703C20.8059 6.18664 18.7222 9.58819 18.1843 13.2922C19.221 11.7521 20.6753 10.4572 22.4195 9.52121C24.1638 8.58519 26.1449 8.03659 28.1889 7.92352C34.3538 7.92352 39.0441 14.1992 41.9057 16.1564C44.6377 18.0381 47.865 19.2957 51.2952 19.8153C54.7254 20.3349 58.2501 20.1 61.55 19.1319C68.85 17.1016 72.259 10.0144 73 6.65374C69.4632 11.0423 64.094 13.6773 57.4546 10.5713C52.8812 8.42952 49.4612 -0.369829 35.7043 0.0120598Z" fill="#008EFF"/>
<path d="M17.52 19.9307C13.2385 19.8792 9.08534 21.2046 5.85358 23.6537C2.62182 26.1028 0.537967 29.504 0 33.2077C1.03831 31.666 2.49492 30.3703 4.24188 29.4342C5.98885 28.4981 7.97272 27.9503 10.0192 27.839C16.1841 27.839 20.8744 34.1147 23.736 36.0719C26.468 37.9536 29.6953 39.2112 33.1255 39.7308C36.5557 40.2503 40.0804 40.0155 43.3803 39.0474C50.6803 37.0171 54.0857 29.9298 54.8303 26.5692C51.2898 30.9578 45.9243 33.596 39.285 30.4868C34.7115 28.345 31.2915 19.5297 17.52 19.9307Z" fill="#008EFF"/>
</svg>
