<svg width="17" height="22" viewBox="0 0 17 22" fill="none" xmlns="http://www.w3.org/2000/svg">
<path d="M4.28564 5V3C4.28564 2.46957 4.49636 1.96086 4.87143 1.58579C5.2465 1.21071 5.75521 1 6.28564 1H10.2856C10.8161 1 11.3248 1.21071 11.6999 1.58579C12.0749 1.96086 12.2856 2.46957 12.2856 3V5M15.2856 5V19C15.2856 19.5304 15.0749 20.0391 14.6999 20.4142C14.3248 20.7893 13.8161 21 13.2856 21H3.28564C2.75521 21 2.2465 20.7893 1.87143 20.4142C1.49636 20.0391 1.28564 19.5304 1.28564 19V5H15.2856Z" stroke="#A30D11" stroke-width="2" stroke-linecap="round" stroke-linejoin="round"/>
</svg>
