<svg width="25" height="24" viewBox="0 0 25 24" fill="none" xmlns="http://www.w3.org/2000/svg">
<path d="M11.2856 4H4.28564C3.75521 4 3.2465 4.21071 2.87143 4.58579C2.49636 4.96086 2.28564 5.46957 2.28564 6V20C2.28564 20.5304 2.49636 21.0391 2.87143 21.4142C3.2465 21.7893 3.75521 22 4.28564 22H18.2856C18.8161 22 19.3248 21.7893 19.6999 21.4142C20.0749 21.0391 20.2856 20.5304 20.2856 20V13" stroke="#1b2767" stroke-width="2" stroke-linecap="round" stroke-linejoin="round"/>
<path d="M18.7856 2.49998C19.1835 2.10216 19.723 1.87866 20.2856 1.87866C20.8483 1.87866 21.3878 2.10216 21.7856 2.49998C22.1835 2.89781 22.407 3.43737 22.407 3.99998C22.407 4.56259 22.1835 5.10216 21.7856 5.49998L12.2856 15L8.28564 16L9.28564 12L18.7856 2.49998Z" stroke="#1b2767" stroke-width="2" stroke-linecap="round" stroke-linejoin="round"/>
</svg>
